<?xml version="1.0" encoding="utf-8"?>
<!DOCTYPE svg PUBLIC "-//W3C//DTD SVG 1.0//EN" "http://www.w3.org/TR/2001/REC-SVG-20010904/DTD/svg10.dtd">
<svg version="1.0" xmlns="http://www.w3.org/2000/svg" width="814px" height="215px" viewBox="0 0 814 215" preserveAspectRatio="xMidYMid meet">
 <g fill="#ffffff">
  <path d="M185.3 211 c-4 -2.4 -6.1 -5.9 -4.2 -7 0.8 -0.5 2.2 0.2 4 2.1 6.7 7.2 17.7 0.1 13.9 -9 -0.8 -2.1 -3.2 -4 -8.2 -6.6 -8.3 -4.4 -10.7 -8.2 -8.8 -14.1 2.3 -6.9 9.3 -9.3 15.8 -5.4 3.4 2.1 3.8 3 2.1 4.7 -0.8 0.8 -1.6 0.6 -3.1 -0.9 -2.8 -2.8 -8.8 -2.1 -10.7 1.3 -2.6 4.6 -0.9 7.5 6.8 11.3 7.9 4 10.6 7.4 10.5 13.1 -0.1 5 -2.5 8.8 -6.9 10.9 -4.4 2.1 -7.3 2 -11.2 -0.4z"/>
  <path d="M259 191 l0 -22 14.5 0 c13.8 0 14.5 0.1 14.5 2 0 1.9 -0.7 2 -13 2 l-13 0 0 8 0 8 13 0 c12.3 0 13 0.1 13 2 0 1.9 -0.7 2 -13 2 l-13 0 0 8 0 8 13 0 c12.3 0 13 0.1 13 2 0 1.9 -0.7 2 -14.5 2 l-14.5 0 0 -22z"/>
  <path d="M356.6 211.6 c-7.7 -2.9 -14.6 -12.5 -14.6 -20.5 0 -5.1 2.2 -10.4 6.2 -14.7 9.7 -10.5 25.5 -9.7 33.9 1.9 2.6 3.6 2.8 4.2 1.4 5 -0.9 0.5 -1.8 0.7 -1.9 0.5 -0.1 -0.1 -1.3 -1.8 -2.5 -3.6 -3.1 -4.4 -8.9 -7.2 -15.1 -7.2 -6.1 0 -9.6 1.7 -13.8 6.4 -9.8 11.1 -1.3 29.6 13.6 29.6 6 0 10.2 -2.1 14.5 -7.1 2.7 -3.1 4 -4 4.8 -3.2 1.8 1.8 -2.5 7.9 -7.6 10.9 -5.4 3.1 -13.5 4 -18.9 2z"/>
  <path d="M439 190.9 l0 -22.1 12.1 0.4 c11.8 0.3 12.1 0.4 14.5 3.1 1.8 2.1 2.4 4 2.4 7.7 0 8.8 -2.4 11.5 -11.4 12.8 l-4.8 0.7 8.1 9.2 c4.4 5 8.1 9.4 8.1 9.7 0 0.3 -0.9 0.6 -1.9 0.6 -1.2 0 -5.3 -3.8 -10.7 -10 -5.1 -5.9 -9.5 -10 -10.6 -10 -1.6 0 -1.8 1 -1.8 10 0 9.3 -0.1 10 -2 10 -1.9 0 -2 -0.7 -2 -22.1z m23.1 -3.8 c3 -2.4 3.3 -8.9 0.5 -12 -1.7 -1.8 -3.1 -2.1 -10.8 -2.1 l-8.8 0 0 8 0 8 8.4 0 c6.7 0 8.8 -0.4 10.7 -1.9z"/>
  <path d="M524 191 l0 -22 14.5 0 c13.8 0 14.5 0.1 14.5 2 0 1.9 -0.7 2 -12.5 2 l-12.5 0 0 8 0 8 12.5 0 c11.8 0 12.5 0.1 12.5 2 0 1.9 -0.7 2 -12.5 2 l-12.5 0 0 8 0 8 12.5 0 c11.8 0 12.5 0.1 12.5 2 0 1.9 -0.7 2 -14.5 2 l-14.5 0 0 -22z"/>
  <path d="M620 193 l0 -20 -5.5 0 c-4.8 0 -5.5 -0.2 -5.5 -2 0 -1.9 0.7 -2 12.5 -2 11.8 0 12.5 0.1 12.5 2 0 1.8 -0.7 2 -5.5 2 l-5.5 0 0 20 c0 17.1 -0.2 20 -1.5 20 -1.3 0 -1.5 -2.9 -1.5 -20z"/>
  <path d="M3 135.3 c0 -0.5 1.4 -6.5 3.2 -13.5 l3.3 -12.8 37.9 -0.2 38 -0.3 2.6 -10.5 c1.5 -5.8 3 -11.7 3.3 -13.2 l0.7 -2.8 -38 0 c-35.9 0 -38.1 -0.1 -37.6 -1.7 0.3 -1 2.1 -8.3 4.1 -16.3 2 -8 4 -16.2 4.6 -18.2 l1 -3.8 23.3 0 23.4 0 -1.4 5.3 c-0.7 2.8 -1.4 5.8 -1.4 6.5 0 0.9 8.2 1.2 37.5 1.2 20.6 0 37.5 0.2 37.5 0.5 0 0.3 -3 12.6 -6.7 27.3 l-6.6 26.7 -10.9 13.3 -10.9 13.2 -53.5 0 c-29.4 0 -53.4 -0.3 -53.4 -0.7z"/>
  <path d="M168.2 122.7 l-11.1 -13.3 7.5 -30 c4.1 -16.4 7.9 -31.6 8.5 -33.6 l1 -3.8 23.1 0 23.1 0 -0.6 3.2 c-0.3 1.8 -0.9 4.8 -1.3 6.6 l-0.6 3.2 22.5 0 22.5 0 -2.5 9.8 c-1.3 5.3 -2.9 11.4 -3.4 13.4 l-1 3.8 -22.6 0.2 -22.6 0.3 -3.3 12.5 c-1.8 6.9 -3.3 12.8 -3.3 13.2 -0.1 0.4 14 0.9 31.3 1 l31.3 0.3 -11 13.3 -11 13.2 -32.7 0 -32.7 0 -11.1 -13.3z"/>
  <path d="M294.4 123.3 c-5.8 -7 -10.8 -13.2 -11 -13.8 -0.2 -0.5 3.4 -15.8 7.9 -34 l8.3 -33 23.2 -0.3 c12.8 -0.1 23.2 0 23.2 0.3 0 0.3 -3.6 14.9 -8 32.5 -4.4 17.6 -8 32.4 -8 33 0 0.7 10.6 1 31.1 1 17.1 0 30.9 0.4 30.7 0.8 -0.1 0.5 -5 6.5 -10.8 13.5 l-10.5 12.7 -32.7 0 -32.7 0 -10.7 -12.7z"/>
  <path d="M418.9 89.3 l11.7 -46.8 23.2 -0.3 c12.8 -0.1 23.2 0 23.2 0.2 0 0.2 -1.1 5 -2.4 10.5 -1.3 5.6 -2 10.1 -1.5 10.1 0.5 0 8 -3.6 16.7 -7.9 l15.8 -7.9 1.8 -8.2 c0.9 -4.5 2 -8.8 2.3 -9.6 0.4 -1.2 -5.4 -1.4 -37.5 -1.4 l-38 0 -10.4 -12.2 c-5.7 -6.8 -10.8 -12.9 -11.2 -13.5 -0.6 -1 11.8 -1.3 60.6 -1.3 l61.3 0 10 12.2 c5.5 6.6 10.5 12.8 11.2 13.8 0.9 1.3 0.2 5.6 -4 22 l-5.2 20.4 -16.5 7.7 c-9.1 4.2 -16.4 8.2 -16.2 8.8 0.1 0.6 7.6 12 16.7 25.2 9.1 13.2 16.5 24.3 16.5 24.5 0 0.2 -12.3 0.4 -27.2 0.4 l-27.3 0 -13.5 -19.5 c-7.4 -10.8 -13.9 -19.4 -14.4 -19.2 -0.6 0.2 -2.9 7.7 -5.1 16.8 -2.3 9 -4.5 17.6 -4.8 19.2 l-0.7 2.7 -23.4 0 -23.4 0 11.7 -46.7z"/>
  <path d="M566.4 122.7 l-11 -13.2 8.4 -33.8 8.4 -33.7 23.3 0 23.3 0 -1.4 5.3 c-0.7 2.8 -1.4 5.8 -1.4 6.5 0 0.9 5.2 1.2 22.5 1.2 l22.5 0 -0.7 2.8 c-0.3 1.5 -1.8 7.4 -3.3 13.2 l-2.6 10.5 -22.9 0.5 -22.9 0.5 -2.6 10.5 c-1.5 5.8 -3 11.7 -3.3 13.2 l-0.7 2.8 31.4 0.2 31.3 0.3 -11 13.3 -11 13.2 -32.6 0 -32.6 0 -11.1 -13.3z"/>
  <path d="M686.2 130.1 c2.9 -3.3 8.4 -9.4 12.2 -13.5 l6.9 -7.6 8.1 -33.3 8.1 -33.2 23.6 -0.3 23.6 -0.2 -11.6 47 -11.6 47 -32.3 0 -32.4 0 5.4 -5.9z"/>
  <path d="M18.7 15.1 c-5.9 -7.2 -10.7 -13.2 -10.7 -13.5 0 -0.3 27.8 -0.6 61.9 -0.6 l61.9 0 10.1 13.5 10.1 13.5 -61.3 0 -61.4 0 -10.6 -12.9z"/>
  <path d="M168.4 16.3 c-4.9 -6.5 -9.5 -12.6 -10.2 -13.5 -1.3 -1.7 1.1 -1.8 52.2 -1.8 l53.5 0 9.9 12.3 c5.4 6.7 10.2 12.8 10.6 13.5 0.6 0.9 -10.3 1.2 -53.2 1.2 l-54 0 -8.8 -11.7z"/>
  <path d="M293.7 15.8 c-5.1 -6.8 -9.7 -12.9 -10.1 -13.5 -0.6 -1 10.2 -1.3 52.7 -1.3 l53.3 0 7.4 9.2 c4 5.1 8.9 11.2 10.8 13.6 l3.4 4.2 -54 0 -54.1 0 -9.4 -12.2z"/>
  <path d="M565.1 14.5 l-10.1 -13.5 53.4 0 53.5 0 9.9 12.3 c5.4 6.7 10.2 12.8 10.6 13.5 0.6 0.9 -10.3 1.2 -53.2 1.2 l-54 0 -10.1 -13.5z"/>
  <path d="M693.3 23.2 c-1.7 -2.6 -5.9 -8.6 -9.3 -13.4 l-6.1 -8.8 55.8 0 55.8 0.1 9 11 c5 6.1 9.8 12.1 10.8 13.5 l1.9 2.4 -57.4 0 -57.3 0 -3.2 -4.8z"/>
 </g>
</svg>